<?xml version="1.0" encoding="UTF-8"?>
<svg width="956px" height="757px" viewBox="0 0 956 757" version="1.1" xmlns="http://www.w3.org/2000/svg" xmlns:xlink="http://www.w3.org/1999/xlink">
    <!-- Generator: Sketch 61 (89581) - https://sketch.com -->
    <title>Slice 1</title>
    <desc>Created with Sketch.</desc>
    <g id="Page-1" stroke="none" stroke-width="1" fill="none" fill-rule="evenodd">
        <g id="undraw_Booked_j7rj" fill-rule="nonzero">
            <path d="M913.29515,316.69022 C871.66832,153.00404 727.83452,34.84555 559.00476,30.10632 C469.74952,27.60083 375.8281,57.20281 307.44639,160.79096 C185.20668,345.96596 314.9583,473.92757 405.4177,534.73238 C449.120562,564.167707 488.499273,599.561161 522.41325,639.88759 C583.51563,712.39538 701.06268,802.4965 841.0559,661.3219 C942.52316,558.99837 941.02273,425.72137 913.29515,316.69022 Z" id="Path" fill="#F2F2F2"></path>
            <path d="M389.30496,756.17844 C418.53976,748.56388 446.64812,742.08906 473.63004,736.75398 L463.26211,702.09189 C466.86939,700.08921 482.48353,720.14737 482.48353,720.14737 L469.32205,619.89597 C487.34994,623.91665 495.70212,726.16997 495.70212,726.16997 L516.15712,692.09963 L506.07479,730.68147 C588.63995,716.26311 659.88111,711.79111 719.76404,712.86305 L710.89011,683.19592 C714.49739,681.19324 730.11152,701.2514 730.11152,701.2514 L716.95008,601.00004 C734.97797,605.02072 743.33015,707.27404 743.33015,707.27404 L763.78515,673.2037 L753.10637,714.06819 C803.29331,716.82304 844.1847,723.41911 875.72975,730.61437 C866.88493,684.50548 835.9265,640.16716 835.9265,640.16716 C859.74375,652.5444 872.12629,672.69286 878.53035,691.36647 C879.49601,634.69111 876.98602,529.52003 852.89274,412.62492 C852.89274,412.62492 900.86424,593.09218 893.57919,713.37984 L892.65119,734.74733 C934.47419,745.65668 955.45719,756.52207 955.45719,756.52207 L389.30496,756.17844 Z" id="Path" fill="#B2B2B2"></path>
            <path d="M570.53879,728.34129 C570.33534,728.00884 565.53831,719.99908 563.87524,703.36661 C562.34982,688.10719 563.33069,662.38625 576.66991,626.50766 C601.94067,558.53806 570.84613,503.69644 570.5284,503.15016 L572.06248,502.26016 C572.14299,502.39867 580.16661,516.38116 584.90648,538.64607 C591.169361,568.164681 588.888811,598.856909 578.3321,627.12576 C553.10463,694.97935 571.85988,727.10066 572.0521,727.41752 L570.53879,728.34129 Z" id="Path" fill="#B2B2B2"></path>
            <circle id="Oval" fill="#FFE9B7" cx="560.6573" cy="487.63448" r="11.52464"></circle>
            <circle id="Oval" fill="#B2B2B2" cx="597.00426" cy="530.18701" r="11.52464"></circle>
            <circle id="Oval" fill="#FFE9B7" cx="572.18195" cy="558.55537" r="11.52464"></circle>
            <circle id="Oval" fill="#FFE9B7" cx="602.32332" cy="582.49117" r="11.52464"></circle>
            <circle id="Oval" fill="#B2B2B2" cx="563.31684" cy="619.72463" r="11.52464"></circle>
            <path d="M577.50102,728.7655 C577.50102,728.7655 565.97638,700.39714 600.55031,679.12088 L577.50102,728.7655 Z" id="Path" fill="#B2B2B2"></path>
            <path d="M563.32749,728.2509 C563.32749,728.2509 558.08249,698.08352 517.48734,698.34208 L563.32749,728.2509 Z" id="Path" fill="#B2B2B2"></path>
            <path d="M739.81211,250.36953 C717.7905,250.36953 699.93846,270.18137 699.93846,294.62053 L699.93846,325.67072 L709.48807,325.67072 L715.01676,314.16638 L713.63457,325.67072 L775.01583,325.67072 L780.04191,315.21223 L778.78541,325.67072 L785.69627,325.67072 L785.69627,301.29072 C785.69627,273.16776 765.15321,250.36953 739.81211,250.36953 L739.81211,250.36953 Z" id="Path" fill="#2F2E41"></path>
            <path d="M702.35984,393.92604 L695.73708,419.31329 L757.5495,417.1057 L756.4457,396.13363 C756.4457,396.13363 710.08639,383.99188 702.35984,393.92604 L702.35984,393.92604 Z" id="Path" fill="#A0616A"></path>
            <polygon id="Path" fill="#A0616A" points="642.755 495.475 662.623 539.627 681.388 516.447 665.935 485.541"></polygon>
            <polygon id="Path" fill="#A0616A" points="692.426 657.733 694.633 708.507 718.917 708.507 715.605 657.733"></polygon>
            <path d="M663.72708,449.11567 L674.76501,485.54085 L691.32191,662.14776 C691.32191,662.14776 706.77501,666.56293 717.81291,661.04397 L720.0205,636.76052 L724.43567,497.68257 C724.43567,497.68257 745.40774,486.64464 743.20016,471.19157 C740.99258,455.7385 735.4736,434.76639 735.4736,434.76639 L663.72708,449.11567 Z" id="Path" fill="#6B6B6A"></path>
            <path d="M697.94467,696.36535 L691.32191,696.36535 C691.32191,696.36535 672.55742,716.23363 665.93466,718.44121 C659.3119,720.64879 625.09432,739.41328 652.68914,742.72466 C680.28396,746.03604 697.94467,731.68673 697.94467,731.68673 C697.94467,731.68673 706.77501,737.20573 718.91674,732.79052 C731.05847,728.37531 724.43574,715.12983 724.43574,715.12983 C724.43574,715.12983 718.27208,694.94235 718.04253,695.10195 C717.81298,695.26155 711.19018,705.19569 697.94467,696.36535 L697.94467,696.36535 Z" id="Path" fill="#2F2E41"></path>
            <circle id="Oval" fill="#A0616A" cx="732.16225" cy="293.48083" r="25.38724"></circle>
            <g id="Group" transform="translate(188.728610, 0.761040)">
                <path d="M580.96261,325.83359 L569.28446,335.56905 L567.71709,336.87152 L566.6133,350.117 L523.56537,350.117 C523.56537,350.117 529.43755,345.02853 534.8903,339.76341 C535.00065,339.64201 535.12205,339.50956 535.25457,339.3881 C535.99409,338.67067 536.65634,338.00835 537.25243,337.41233 C537.57251,337.08121 537.88153,336.77211 538.15743,336.48511 C538.61002,336.01049 539.05157,335.55797 539.49304,335.10537 C539.499026,335.099446 539.502893,335.091714 539.50404,335.08337 C540.63363,333.901102 541.69499,332.65548 542.68297,331.35255 L542.69397,331.34155 C542.959076,330.990239 543.205909,330.625506 543.43349,330.2488 C546.74487,324.7298 539.01832,313.6919 539.01832,313.6919 L563.30177,301.55018 C564.15171,313.51526 574.27348,321.50671 578.799,324.50906 C580.12372,325.381 580.96261,325.83359 580.96261,325.83359 L580.96261,325.83359 Z" id="Path" fill="#A0616A"></path>
                <path d="M640.56744,511.27085 C624.01055,515.68602 622.90675,482.57222 622.90675,482.57222 L600.3091,437.37692 C595.534123,427.826959 592.250707,417.601702 590.57316,407.05713 L585.37779,374.40049 L583.79937,376.28793 L583.79937,376.29893 L580.96261,377.71182 L563.72137,350.117 L558.88675,342.39045 L558.88675,333.5601 L575.44365,325.83355 L582.06641,325.83355 C582.06641,325.83355 582.2099,325.81145 582.46376,325.78936 C585.51024,325.46928 605.33439,324.14471 606.34986,343.49424 C606.74955,351.08838 606.71505,357.37994 606.50839,362.3165 C605.879733,375.973946 607.175674,389.651922 610.35811,402.94828 C611.52668,407.7424 612.80155,411.90599 614.07641,414.137 C618.49158,421.86356 633.94469,482.57218 633.94469,482.57218 C633.94469,482.57218 657.12434,506.85567 640.56744,511.27085 L640.56744,511.27085 Z" id="Path" fill="#A0616A"></path>
                <path d="M539.01847,337.97531 L534.83512,345.6025 L532.36257,350.11704 L520.254,372.1929 C520.254,372.1929 516.82122,374.99651 511.25806,378.61699 C502.00826,384.63261 486.84216,392.88899 471.68706,394.26877 C447.40361,396.47635 470.58326,318.10704 470.58326,318.10704 C470.58326,318.10704 478.30982,287.20083 489.34775,290.51221 C500.38568,293.82359 491.55533,304.86152 483.82875,325.83359 C476.10217,346.80566 482.72496,369.98532 482.72496,369.98532 C482.72496,369.98532 505.90462,355.63601 518.04634,344.59807 C524.37105,338.84729 529.80177,337.29097 533.54357,337.12537 L533.55457,337.12537 C534.79442,337.05727 536.037827,337.153777 537.25232,337.41237 C537.860103,337.533894 538.452468,337.722704 539.01847,337.97531 L539.01847,337.97531 Z" id="Path" fill="#A0616A"></path>
                <path d="M542.68307,331.35256 C542.63895,331.47396 542.12013,332.45635 538.15748,336.48515 C539.774448,334.873043 541.286096,333.158644 542.68307,331.35256 Z" id="Path" fill="#D0CDE1"></path>
                <path d="M584.82589,374.95239 L583.79937,376.29898 L567.71709,404.20291 C567.71709,404.20291 546.74502,396.47635 531.29192,394.26877 C522.60725,392.769874 513.880862,396.685608 509.2271,404.16977 L513.63123,386.54223 L511.25805,378.617 C510.98205,377.68978 510.66205,376.66326 510.31985,375.50429 C507.00847,364.46636 519.15019,352.32464 519.15019,352.32464 L533.54363,337.12538 L533.55463,337.12538 C534.79448,337.05728 536.037887,337.153787 537.25238,337.41238 C536.65629,338.00838 535.99404,338.67072 535.25452,339.38815 C535.122,339.50961 535.0006,339.64206 534.89025,339.76346 C530.6627,344.07927 532.85925,345.28246 534.83507,345.60251 C535.488567,345.702736 536.150584,345.736032 536.81084,345.70188 C541.41363,346.36413 551.49127,342.32427 558.8867,338.94667 C563.91999,336.65076 567.71704,334.66395 567.71704,334.66395 L577.35314,325.8336 L578.79914,324.50903 C580.12371,325.38103 580.9626,325.8336 580.9626,325.8336 L582.0664,325.8336 C582.0664,325.8336 582.20989,325.8115 582.46375,325.78941 L577.43788,329.51884 C572.353354,333.291795 569.525434,339.382963 569.92467,345.70184 L584.82589,374.95239 Z" id="Path" fill="#FFB810"></path>
                <path d="M524.66916,406.41049 L508.532,412.71214 C508.532,412.71214 420.91263,378.81566 407.66711,406.41049 C394.42159,434.00532 454.02643,500.23291 454.02643,500.23291 L480.51743,488.09119 L469.4795,454.97739 C469.4795,454.97739 533.4995,509.06326 559.9905,479.26084 C586.4815,449.45842 568.82085,407.31873 568.82085,407.31873 C568.82085,407.31873 552.264,394.26877 524.66916,406.41049 L524.66916,406.41049 Z" id="Path" fill="#6B6B6A"></path>
                <path d="M478.30985,526.72395 L468.37571,534.4505 C468.37571,534.4505 477.20605,569.77188 473.89471,575.29085 C470.58337,580.80982 463.96057,596.26292 476.1023,595.15913 C488.24403,594.05534 501.48954,575.29085 502.5933,568.66813 C503.69706,562.04541 511.42364,542.17713 511.42364,542.17713 C511.42364,542.17713 524.66916,511.27093 514.73502,510.16713 C504.80088,509.06333 488.9784,508.32458 488.9784,508.32458 L478.30985,526.72395 Z" id="Path" fill="#2F2E41"></path>
                <path d="M562.41886,261.79817 C558.529732,256.575644 552.429784,253.462792 545.9188,253.37806 L545.136,253.37806 C530.04234,253.37806 517.80658,267.03606 517.80658,283.88412 L517.80658,283.88419 L522.864,283.88419 L523.68077,277.66719 L524.87832,283.88419 L554.874,283.88419 L557.38706,278.62451 L556.75878,283.88419 L562.65978,283.88419 C565.413387,297.55935 561.456893,311.234507 550.7903,324.90966 L560.84252,324.90966 L565.8686,314.39031 L564.61209,324.90966 L583.77409,324.90966 L587.54367,300.71509 C587.54367,282.59559 577.01572,267.23062 562.41886,261.79817 L562.41886,261.79817 Z" id="Path" fill="#2F2E41"></path>
                <path d="M381.43557,47.45631 L381.43557,0.239 L364.77063,0.239 L364.77063,47.45635 L119.42563,47.45635 L119.42563,0.239 L102.76063,0.239 L102.76063,47.45635 L0.91929,47.45635 L0.91929,304.83716 L483.27692,304.83716 L483.27692,47.45631 L381.43557,47.45631 Z M111.09311,107.63531 C98.4059225,107.63531 87.5828154,98.4529025 85.5161663,85.9351675 C83.4495173,73.4174326 90.7466628,61.243216 102.76063,57.16527 L102.76063,94.6737 L119.42563,94.6737 L119.42563,57.16527 C131.439622,61.2431532 138.736794,73.4173797 136.670145,85.935131 C134.603496,98.4528822 123.780364,107.63531 111.09316,107.63531 L111.09311,107.63531 Z M373.10311,107.63531 C360.415906,107.63531 349.592774,98.4529222 347.526125,85.935171 C345.459476,73.4174197 352.756648,61.2431932 364.77064,57.16527 L364.77064,94.6737 L381.43558,94.6737 L381.43558,57.16527 C393.449572,61.2431532 400.746744,73.4173797 398.680095,85.935131 C396.613446,98.4528822 385.790314,107.63531 373.10311,107.63531 L373.10311,107.63531 Z" id="Shape" fill="#FFB810"></path>
            </g>
            <polygon id="Path" fill="#FFFFFF" points="212.79366 134.78249 296.11839 134.78249 296.11839 197.73896 212.79366 197.73896"></polygon>
            <polygon id="Path" fill="#FFFFFF" points="330.37411 134.78249 413.69884 134.78249 413.69884 197.73896 330.37411 197.73896"></polygon>
            <polygon id="Path" fill="#FFFFFF" points="447.95457 134.78249 531.2793 134.78249 531.2793 197.73896 447.95457 197.73896"></polygon>
            <polygon id="Path" fill="#FFFFFF" points="565.53503 134.78249 648.85976 134.78249 648.85976 197.73896 565.53503 197.73896"></polygon>
            <polygon id="Path" fill="#FFFFFF" points="212.79366 216.25556 296.11839 216.25556 296.11839 279.21203 212.79366 279.21203"></polygon>
            <polygon id="Path" fill="#FFFFFF" points="330.37411 216.25556 413.69884 216.25556 413.69884 279.21203 330.37411 279.21203"></polygon>
            <polygon id="Path" fill="#FFFFFF" points="447.95457 216.25556 531.2793 216.25556 531.2793 279.21203 447.95457 279.21203"></polygon>
            <polygon id="Path" fill="#FFFFFF" points="565.53503 216.25556 648.85976 216.25556 648.85976 279.21203 565.53503 279.21203"></polygon>
            <polygon id="Path" fill="#B2B2B2" points="489.24 180.428 463.196 144.462 470.291 139.326 490.226 166.857 566.513 88.481 572.789 94.59"></polygon>
            <polygon id="Path" fill="#B2B2B2" points="369.808 267.456 343.764 231.49 350.858 226.354 370.794 253.885 447.081 175.509 453.356 181.618"></polygon>
            <polygon id="Path" fill="#F2F2F2" points="133.157 274.11 114.079 266.581 95 259.053 111.059 246.295 127.118 233.536 130.138 253.823"></polygon>
            <polygon id="Path" fill="#F2F2F2" points="251.157 640.11 232.079 632.581 213 625.053 229.059 612.295 245.118 599.536 248.138 619.823"></polygon>
            <polygon id="Path" fill="#F2F2F2" points="38.157 385.11 19.079 377.581 -3.55271368e-15 370.053 16.059 357.295 32.118 344.536 35.138 364.823"></polygon>
            <polygon id="Path" fill="#F2F2F2" points="141.102 455.866 123.083 465.663 105.065 475.461 105.589 454.958 106.113 434.454 123.608 445.16"></polygon>
            <polygon id="Path" fill="#F2F2F2" points="348.102 559.866 330.083 569.663 312.065 579.461 312.589 558.958 313.113 538.454 330.608 549.16"></polygon>
        </g>
    </g>
</svg>