<svg height="757" viewBox="0 0 956 757" width="956" xmlns="http://www.w3.org/2000/svg"><g fill="none"><path d="m913.29515 316.69022c-41.62683-163.68618-185.46063-281.84467-354.29039-286.5839-89.25524-2.50549-183.17666 27.09649-251.55837 130.68464-122.23971 185.175 7.51191 313.13661 97.97131 373.94142 43.702862 29.435327 83.081573 64.828781 116.99555 105.15521 61.10238 72.50779 178.64943 162.60891 318.64265 21.43431 101.46726-102.32353 99.96683-235.60053 72.23925-344.63168z" fill="#f2f2f2"/><path d="m389.30496 756.17844c29.2348-7.61456 57.34316-14.08938 84.32508-19.42446l-10.36793-34.66209c3.60728-2.00268 19.22142 18.05548 19.22142 18.05548l-13.16148-100.2514c18.02789 4.02068 26.38007 106.274 26.38007 106.274l20.455-34.07034-10.08233 38.58184c82.56516-14.41836 153.80632-18.89036 213.68925-17.81842l-8.87393-29.66713c3.60728-2.00268 19.22141 18.05548 19.22141 18.05548l-13.16144-100.25136c18.02789 4.02068 26.38007 106.274 26.38007 106.274l20.455-34.07034-10.67878 40.86449c50.18694 2.75485 91.07833 9.35092 122.62338 16.54618-8.84482-46.10889-39.80325-90.44721-39.80325-90.44721 23.81725 12.37724 36.19979 32.5257 42.60385 51.19931.96566-56.67536-1.54433-161.84644-25.63761-278.74155 0 0 47.9715 180.46726 40.68645 300.75492l-.928 21.36749c41.823 10.90935 62.806 21.77474 62.806 21.77474z" fill="#b2b2b2"/><path d="m570.53879 728.34129c-.20345-.33245-5.00048-8.34221-6.66355-24.97468-1.52542-15.25942-.54455-40.98036 12.79467-76.85895 25.27076-67.9696-5.82378-122.81122-6.14151-123.3575l1.53408-.89c.08051.13851 8.10413 14.121 12.844 36.38591 6.262881 29.518611 3.982331 60.210839-6.57438 88.47969-25.22747 67.85359-6.47222 99.9749-6.28 100.29176z" fill="#b2b2b2"/><circle cx="560.6573" cy="487.63448" fill="#ffe9b7" r="11.52464"/><circle cx="597.00426" cy="530.18701" fill="#b2b2b2" r="11.52464"/><circle cx="572.18195" cy="558.55537" fill="#ffe9b7" r="11.52464"/><circle cx="602.32332" cy="582.49117" fill="#ffe9b7" r="11.52464"/><circle cx="563.31684" cy="619.72463" fill="#b2b2b2" r="11.52464"/><path d="m577.50102 728.7655s-11.52464-28.36836 23.04929-49.64462z" fill="#b2b2b2"/><path d="m563.32749 728.2509s-5.245-30.16738-45.84015-29.90882z" fill="#b2b2b2"/><path d="m739.81211 250.36953c-22.02161 0-39.87365 19.81184-39.87365 44.251v31.05019h9.54961l5.52869-11.50434-1.38219 11.50434h61.38126l5.02608-10.45849-1.2565 10.45849h6.91086v-24.38c0-28.12296-20.54306-50.92119-45.88416-50.92119z" fill="#2f2e41"/><path d="m702.35984 393.92604-6.62276 25.38725 61.81242-2.20759-1.1038-20.97207s-46.35931-12.14175-54.08586-2.20759z" fill="#a0616a"/><path d="m642.755 495.475 19.868 44.152 18.765-23.18-15.453-30.906z" fill="#a0616a"/><path d="m692.426 657.733 2.207 50.774h24.284l-3.312-50.774z" fill="#a0616a"/><path d="m663.72708 449.11567 11.03793 36.42518 16.5569 176.60691s15.4531 4.41517 26.491-1.10379l2.20759-24.28345 4.41517-139.07795s20.97207-11.03793 18.76449-26.491-7.72656-36.42518-7.72656-36.42518z" fill="#6b6b6a"/><path d="m697.94467 696.36535h-6.62276s-18.76449 19.86828-25.38725 22.07586-40.84034 20.97207-13.24552 24.28345 45.25553-11.03793 45.25553-11.03793 8.83034 5.519 20.97207 1.10379 5.519-17.66069 5.519-17.66069-6.16366-20.18748-6.39321-20.02788-6.85235 10.09374-20.09786 1.2634z" fill="#2f2e41"/><circle cx="732.16225" cy="293.48083" fill="#a0616a" r="25.38724"/><g transform="translate(188.72861 .76104)"><g fill="#a0616a"><path d="m580.96261 325.83359-11.67815 9.73546-1.56737 1.30247-1.10379 13.24548h-43.04793s5.87218-5.08847 11.32493-10.35359c.11035-.1214.23175-.25385.36427-.37531.73952-.71743 1.40177-1.37975 1.99786-1.97577.32008-.33112.6291-.64022.905-.92722.45259-.47462.89414-.92714 1.33561-1.37974.005986-.005924.009853-.013656.011-.022 1.12959-1.182268 2.19095-2.42789 3.17893-3.73082l.011-.011c.265106-.351311.511939-.716044.73952-1.09275 3.31138-5.519-4.41517-16.5569-4.41517-16.5569l24.28345-12.14172c.84994 11.96508 10.97171 19.95653 15.49723 22.95888 1.32472.87194 2.16361 1.32453 2.16361 1.32453z"/><path d="m640.56744 511.27085c-16.55689 4.41517-17.66069-28.69863-17.66069-28.69863l-22.59765-45.1953c-4.774977-9.549961-8.058393-19.775218-9.73594-30.31979l-5.19537-32.65664-1.57842 1.88744v.011l-2.83676 1.41289-17.24124-27.59482-4.83462-7.72655v-8.83035l16.5569-7.72655h6.62276s.14349-.0221.39735-.04419c3.04648-.32008 22.87063-1.64465 23.8861 17.70488.39969 7.59414.36519 13.8857.15853 18.82226-.628657 13.657446.667284 27.335422 3.84972 40.63178 1.16857 4.79412 2.44344 8.95771 3.7183 11.18872 4.41517 7.72656 19.86828 68.43518 19.86828 68.43518s23.17965 24.28349 6.62275 28.69867z"/><path d="m539.01847 337.97531-4.18335 7.62719-2.47255 4.51454-12.10857 22.07586s-3.43278 2.80361-8.99594 6.42409c-9.2498 6.01562-24.4159 14.272-39.571 15.65178-24.28345 2.20758-1.1038-76.16173-1.1038-76.16173s7.72656-30.90621 18.76449-27.59483 2.20758 14.34931-5.519 35.32138-1.10379 44.15173-1.10379 44.15173 23.17966-14.34931 35.32138-25.38725c6.32471-5.75078 11.75543-7.3071 15.49723-7.4727h.011c1.23985-.0681 2.483257.028407 3.69775.287.607783.121524 1.200148.310334 1.76615.56294z"/></g><path d="m542.68307 331.35256c-.04412.1214-.56294 1.10379-4.52559 5.13259 1.616968-1.612107 3.128616-3.326506 4.52559-5.13259z" fill="#d0cde1"/><path d="m584.82589 374.95239-1.02652 1.34659-16.08228 27.90393s-20.97207-7.72656-36.42517-9.93414c-8.68467-1.498896-17.411058 2.416838-22.06482 9.901l4.40413-17.62754-2.37318-7.92523c-.276-.92722-.596-1.95374-.9382-3.11271-3.31138-11.03793 8.83034-23.17965 8.83034-23.17965l14.39344-15.19926h.011c1.23985-.0681 2.483257.028407 3.69775.287-.59609.596-1.25834 1.25834-1.99786 1.97577-.13252.12146-.25392.25391-.36427.37531-4.22755 4.31581-2.031 5.519-.05518 5.83905.653497.100226 1.315514.133522 1.97577.09937 4.60279.66225 14.68043-3.37761 22.07586-6.75521 5.03329-2.29591 8.83034-4.28272 8.83034-4.28272l9.6361-8.83035 1.446-1.32457c1.32457.872 2.16346 1.32457 2.16346 1.32457h1.1038s.14349-.0221.39735-.04419l-5.02587 3.72943c-5.084526 3.772955-7.912446 9.864123-7.51321 16.183z" fill="#ffb810"/><path d="m524.66916 406.41049-16.13716 6.30165s-87.61937-33.89648-100.86489-6.30165 46.35932 93.82242 46.35932 93.82242l26.491-12.14172-11.03793-33.1138s64.02 54.08587 90.511 24.28345 8.83035-71.94211 8.83035-71.94211-16.55685-13.04996-44.15169-.90824z" fill="#6b6b6a"/><path d="m478.30985 526.72395-9.93414 7.72655s8.83034 35.32138 5.519 40.84035-9.93414 20.97207 2.20759 19.86828 25.38724-19.86828 26.491-26.491 8.83034-26.491 8.83034-26.491 13.24552-30.9062 3.31138-32.01-25.75662-1.84255-25.75662-1.84255z" fill="#2f2e41"/><path d="m562.41886 261.79817c-3.889128-5.222526-9.989076-8.335378-16.50006-8.42011h-.7828c-15.09366 0-27.32942 13.658-27.32942 30.50606v.00007h5.05742l.81677-6.217 1.19755 6.217h29.99568l2.51306-5.25968-.62828 5.25968h5.901c2.753607 13.67516-1.202887 27.350317-11.86948 41.02547h10.05222l5.02608-10.51935-1.25651 10.51935h19.162l3.76958-24.19457c0-18.1195-10.52795-33.48447-25.12481-38.91692z" fill="#2f2e41"/><path d="m381.43557 47.45631v-47.21731h-16.66494v47.21735h-245.345v-47.21735h-16.665v47.21735h-101.84134v257.38081h482.35763v-257.38085zm-270.34246 60.179c-12.6871875 0-23.5102946-9.1824075-25.5769437-21.7001425-2.066649-12.5177349 5.2304965-24.6919515 17.2444637-28.7698975v37.50843h16.665v-37.50843c12.013992 4.0778832 19.311164 16.2521097 17.244515 28.769861-2.066649 12.5177512-12.889781 21.700179-25.576985 21.700179zm262.01 0c-12.687204 0-23.510336-9.1823878-25.576985-21.700139-2.066649-12.5177513 5.230523-24.6919778 17.244515-28.769901v37.50843h16.66494v-37.50843c12.013992 4.0778832 19.311164 16.2521097 17.244515 28.769861-2.066649 12.5177512-12.889781 21.700179-25.576985 21.700179z" fill="#ffb810"/></g><g fill="#fff"><path d="m212.79366 134.78249h83.32473v62.95647h-83.32473z"/><path d="m330.37411 134.78249h83.32473v62.95647h-83.32473z"/><path d="m447.95457 134.78249h83.32473v62.95647h-83.32473z"/><path d="m565.53503 134.78249h83.32473v62.95647h-83.32473z"/><path d="m212.79366 216.25556h83.32473v62.95647h-83.32473z"/><path d="m330.37411 216.25556h83.32473v62.95647h-83.32473z"/><path d="m447.95457 216.25556h83.32473v62.95647h-83.32473z"/><path d="m565.53503 216.25556h83.32473v62.95647h-83.32473z"/></g><path d="m489.24 180.428-26.044-35.966 7.095-5.136 19.935 27.531 76.287-78.376 6.276 6.109z" fill="#b2b2b2"/><path d="m369.808 267.456-26.044-35.966 7.094-5.136 19.936 27.531 76.287-78.376 6.275 6.109z" fill="#b2b2b2"/><path d="m133.157 274.11-19.078-7.529-19.079-7.528 16.059-12.758 16.059-12.759 3.02 20.287z" fill="#f2f2f2"/><path d="m251.157 640.11-19.078-7.529-19.079-7.528 16.059-12.758 16.059-12.759 3.02 20.287z" fill="#f2f2f2"/><path d="m38.157 385.11-19.078-7.529-19.079-7.528 16.059-12.758 16.059-12.759 3.02 20.287z" fill="#f2f2f2"/><path d="m141.102 455.866-18.019 9.797-18.018 9.798.524-20.503.524-20.504 17.495 10.706z" fill="#f2f2f2"/><path d="m348.102 559.866-18.019 9.797-18.018 9.798.524-20.503.524-20.504 17.495 10.706z" fill="#f2f2f2"/></g></svg>