<svg height="726" viewBox="0 0 952 726" width="952" xmlns="http://www.w3.org/2000/svg"><g fill="none"><path d="m762.63464 656.14285h-514.78183c-136.43363-30.21385-247.85292495-134.28046-247.85292495-289.90412-.01971301-23.540722 2.52554071-47.013526 7.59081495-70.00285l414.93681-66.83757 320.09807-51.55705c22.995664 15.043579 44.87833 31.723353 65.47827 49.90995l-306.39523 116.87646-144.54025 55.139 162.32131-40.3447 336.9067-83.73547c20.466825 22.874569 39.068056 47.352161 55.62516 73.19784l-101.8836 76.17463 115.1103-54.48412c.487093.84.97211 1.681383 1.45505 2.52415 72.2224 126.02912-18.81229 283.04385-164.06865 283.04385z" fill="#f2f2f2"/><path d="m680.37217 142.46778c-77.92093 16.09417-173.72217 36.43519-272.22227 57.57992-142.41689 30.581-290.46966 62.85872-398.25719 86.45427l.07156-.27946c4.6193368-17.662712 14.1630387-33.648994 27.519-46.096 81.730213-77.013582 184.36223-128.207125 295.04765-147.17176h.00993c32.064469-5.4666189 64.534243-8.2083961 97.06137-8.1965176 86.895227-.122025 172.669094 19.6168726 250.76995 57.7095476z" fill="#f2f2f2"/><path d="m97.213 0v725.3417h710.5723v-725.3417zm644.93052 512.00591h-577.6477v-449.64622h577.6477z" fill="#ffb810"/><path d="m490.03476 189.09236c-17.51754-29.59923-52.1746-30.97868-52.1746-30.97868s-33.77132-4.31865-55.43542 40.76134c-20.19266 42.01824-48.06111 82.58772-4.48659 92.42389l7.87082-24.49753 4.87436 26.32134c6.204175.446222 12.42812.552594 18.64392.31864 46.66479-1.50662 91.106.44079 89.675-16.3045-1.90218-22.26049 7.8879-59.56413-8.96749-88.0445z" fill="#2f2e41"/><path d="m370.44692 470.15927-59.07761 41.02611s-34.46193 36.103-9.84626 36.103 34.46195-31.17986 34.46195-31.17986l75.488-32.82089z" fill="#ffb8b8"/><path d="m394.24207 310.15742s-51.69291 160.00185-35.28246 168.20707 52.51339 13.12836 52.51339 13.12836z" fill="#6b6b6a"/><path d="m556.75476 512.00591h-116.36653l82.67583-41.84664c1.823121 1.181836 3.571435 2.47525 5.23494 3.87284 12.259495 10.319929 21.993443 23.309742 28.45576 37.9738z" fill="#2f2e41"/><circle cx="427.06296" cy="226.46415" fill="#ffb8b8" r="42.66716"/><path d="m426.24243 261.74661s9.84627 31.17985 0 42.66716 54.15448-16.41045 54.15448-16.41045-22.97463-32.82089-16.41045-47.59029z" fill="#ffb8b8"/><path d="m520.76656 404.20568-3.44615 22.46591s1.7395 5.10362 3.85641 12.5376c2.757 9.69853 6.15392 23.36846 7.12218 34.82292 1.001 11.61862-.50872 20.9726-7.6965 21.56335-10.30581.85328-15.672 7.10565-21.02178 16.41045h-118.71321c.3118-5.12.68931-10.437 1.13233-15.90173.246193-3.282087.5197-6.607947.82052-9.97758.32823-3.87284 11.95647-76.61962 3.21648-92.2759-18.04658-32.32755 4.92316-50.87238 4.92316-50.87238s3.28209-24.61567 3.28209-32.8209c0-6.433 25.20642-13.86684 36.103-16.78795.70563-.18049 1.32924-.361 1.90356-.49229 1.88724-.4923 3.01957-.77125 3.01957-.77125l8.61548-3.52828s24.20541-4.67694 25.84646-7.959c.59075-1.1816 2.24822-2.14976 4.20107-2.98671 3.46258-1.477 7.877-2.52717 8.92728-3.57747 1.499448-1.724162 2.855094-3.568293 4.05333-5.51388 2.98672-3.6596 7.25349-5.85854 12.07817-7.05657 17.6248-4.44717 42.94611 4.36523 42.94611 4.36523l-8.86168 57.84682z" fill="#6b6b6a"/><path d="m572.2954 368.41451-59.0776 41.02611s-34.46194 36.103-9.84627 36.103 34.46194-31.17985 34.46194-31.17985l75.488-32.82089z" fill="#ffb8b8"/><path d="m470.80273 186.23907-34.2395-17.935-21.48191 3.33338c-15.571775 2.416308-28.087192 14.099956-31.567 29.46907l-4.017 17.74164 24.35213-.93663 6.80307-15.87383v15.61215l11.23664-.43222 6.52183-25.272 4.07608 26.90253 39.94618-.81528z" fill="#2f2e41"/><path d="m530.44877 269.13131 11.48731-3.28209s116.51416 47.59029 113.23207 88.61641 1.64105 41.02611-18.05149 42.66716-77.12909-18.05149-75.48805-21.33358 13.12839-19.69254 13.12839-19.69254l-44.30823-34.46193z" fill="#6b6b6a"/><circle cx="469.73012" cy="226.46415" fill="#ffb8b8" r="6.56418"/><path d="m664.70292 516.24021c-.33387-.54556-8.206-13.68994-10.93519-40.98457-2.50328-25.04138-.89362-67.25059 20.99664-126.129 41.47044-111.54114-9.5571-201.53868-10.0785-202.43515l2.51749-1.46049c.13213.22732 13.29924 23.17316 21.07761 59.71091 10.277663 48.441355 6.535179 98.808667-10.78885 145.19911-41.3994 111.35077-10.6212 164.06327-10.30581 164.58325z" fill="#b2b2b2"/><circle cx="648.48697" cy="121.22962" fill="#ffe9b7" r="18.91245"/><circle cx="708.13394" cy="191.06022" fill="#b2b2b2" r="18.91245"/><circle cx="667.39942" cy="237.61395" fill="#ffe9b7" r="18.91245"/><circle cx="716.86276" cy="276.89366" fill="#ffe9b7" r="18.91245"/><g fill="#b2b2b2"><circle cx="652.85138" cy="337.99544" r="18.91245"/><path d="m676.12825 516.93635s-18.91246-46.55373 37.8249-81.469z"/><path d="m652.86886 516.09185s-8.60723-49.506-75.22574-49.08172z"/></g></g></svg>