<svg height="590" viewBox="0 0 1059 590" width="1059" xmlns="http://www.w3.org/2000/svg"><g fill="none"><path d="m1059 552.47999c0-32.1668-16.3221-58.24316-36.45652-58.24316-12.655 0-23.8005 10.30531-30.33731 25.94558-2.208586-.917055-4.575597-1.39202-6.967-1.398-6.09437 0-11.72912 3.12278-16.32427 8.40786-5.89246-19.501-18.38734-32.95544-32.84964-32.95544-13.52217 0-25.316 11.77071-31.60967 29.23968-3.496627-2.95088-7.902688-4.607785-12.47729-4.6921-15.45196.00005-27.9783 20.01205-27.9783 44.69821-.064091 8.229157 1.431597 16.395944 4.40793 24.06827h183.23972c4.61335-9.75624 7.35235-21.90118 7.35235-35.0709z" fill="#ffb810"/><path d="m928.299 216.15119c-28.71033-62.10748-84.89587-115.09021-152.77118-123.72558-17.94635-2.28321-36.68378-1.3675-53.33478 5.70556-21.857 9.28455-37.96508 28.02509-54.24615 45.31275-34.470986 36.592908-73.045593 69.089922-114.95989 96.84747-20.687 13.696-42.876 26.47455-67.43726 29.97882-49.2453 7.02606-97.95556-26.55633-120.41418-70.94189-14.02936-27.7265-20.51245-60.27961-31.85358-89.119-13.0614-.025-28.62286-.0202-45.36487.05694-46.27673.21332-83.94415.897-83.94415.897s44.77362-59.30725 83.77625-37.33435c12.46411 7.02191 25.51886 13.28808 37.51635 18.56665-6.81579-13.11078-15.41308-24.90729-27.24035-34.39191-23.32129-18.7019-54.90741-23.94775-84.7688-22.555-31.35675 1.46252-63.00171 9.8576-88.48157 28.19232-45.39062 32.662-64.135 90.15283-80.17773 143.72284l38.77752 19.43982c16.63312-14.38 40.95581-28.6048 63.37458-15.97473 39.00256 21.973 83.80658 36.562 83.80658 36.562s-37.36194-.33789-83.63868-.12464c-7.77227.03583-15.29242.08515-22.44134.142l430.52423 215.82857c142 2 249.06818-5.67914 384 0 7.03717.29614 22.86554-36.592 22.91827-46.29987.37189-68.42139-4.90893-138.67828-33.61927-200.78577zm-137.88184 18.615c-46.27673.21332-83.94415.897-83.94415.897s44.77362-59.30725 83.77625-37.33435 83.80658 36.562 83.80658 36.562-37.36199-.33785-83.63873-.1246z" fill="#f2f2f2"/><path d="m911 437.73683c0-23.38843-14.48063-42.34852-32.34348-42.34852-11.22724 0-21.11532 7.493-26.91464 18.865-1.991504-.67207-4.079152-1.015386-6.181-1.01647-5.435645.092015-10.625106 2.282577-14.48256 6.11334-5.22767-14.17914-16.31287-23.96187-29.14353-23.96187-11.99658 0-22.45981 8.55849-28.04345 21.26015-3.275313-2.198453-7.124953-3.384903-11.06959-3.41162-13.70863 0-24.822617 14.55072-24.822617 32.5-.039259 6.054381 1.298001 12.03861 3.911497 17.5h162.56652c4.359265-7.786355 6.607848-16.576821 6.52285-25.50001z" fill="#ffb810" opacity=".3"/><path d="m1059 589.237h-998v-2h997z" fill="#2f2e41"/><path d="m402.62962 281.13667s6.28547-46.09349 16.76127-33.52254 0 31.42738 0 31.42738l-8.38064 10.4758-8.38063-6.28548z" fill="#ffb8b8"/><path d="m377.48771 295.80278s20.95159-23.04674 25.14191-18.85643 16.76127 6.28548 14.66611 14.66611-46.0935 35.6177-46.0935 35.6177z" fill="#ffb810"/><path d="m377.48771 295.80278s20.95159-23.04674 25.14191-18.85643 16.76127 6.28548 14.66611 14.66611-46.0935 35.6177-46.0935 35.6177z" fill="#000" opacity=".1"/><path d="m258.06366 293.70762v16.76127s-2.09516 37.71286 10.47579 35.6177 6.28548-33.52254 6.28548-33.52254l-2.09516-18.85643z" fill="#ffb8b8"/><path d="m264.34914 415.22683s-18.85643 29.33223-25.14191 31.42739-39.808 20.95158-43.99833 39.808l-29.33223 37.71286 14.66611 18.85643s67.04509-71.2354 85.90151-77.52088 37.71286-37.71285 37.71286-37.71285z" fill="#ffb8b8"/><path d="m413.10541 367.03818s39.808 6.28548 33.52254 31.42738-67.04508 77.5209-67.04508 77.5209l-2.09516 12.571-23.04671 4.19025-10.47579-10.47579 2.09516-6.28548s25.1419-23.04675 27.23706-31.42738 25.14191-41.90318 35.6177-43.99834l-14.66613-8.38063z" fill="#ffb8b8"/><path d="m172.16215 524.17509s8.38063-12.571-4.19032-10.47579-20.95159 4.19031-20.95159 12.57095 10.4758 67.04508 23.04675 62.85476 2.09516-23.04674 2.09516-23.04674 6.28547-16.76127 10.47579-18.85643 4.19032-12.57095 0-12.57095-12.57094-6.28543-10.47579-10.4758z" fill="#2f2e41"/><path d="m350.25065 478.0816s0-10.4758-8.38064 0-12.57095 18.85643-4.19032 25.1419 37.71286 20.95159 37.71286 20.95159 31.42738 6.28548 27.23707-8.38063c0 0-20.95159-10.4758-20.95159-18.85643s0-23.04675-6.28548-18.85643-25.1419 6.28547-25.1419 0z" fill="#2f2e41"/><path d="m310.44263 320.94469s-29.33222 4.19032-27.23707 46.09349c0 0-37.71285 37.71286-27.23706 50.28381s33.52254 35.6177 41.90318 29.33223 33.52254-54.47413 33.52254-54.47413 58.66444 20.95158 69.14024 10.47579 20.95159-35.6177 20.95159-35.6177l-52.379-27.23706z" fill="#6b6b6a"/><circle cx="392.15382" cy="176.37873" fill="#ffb8b8" r="25.14191"/><path d="m373.29739 178.47389s-14.66611 23.04675-18.85643 25.14191 29.33223 23.04674 29.33223 23.04674 0-27.23706 10.47579-33.52254z" fill="#ffb8b8"/><path d="m371.20223 201.52064s-33.52254-10.4758-39.808 6.28547-20.95159 48.18866-18.85643 69.14024 6.28547 16.76127 0 23.04675-10.4758 2.09516-8.38064 10.47579 4.19032 8.38064 2.09516 12.571 25.1419 18.85639 48.18868 20.95157l23.04675 2.09516s0-37.71285 4.19032-46.09349 12.571-25.14191 12.571-31.42738v-16.63088c0-11.06929-2.888722-21.946956-8.38063-31.55779s-12.57105-18.85644-14.66621-18.85644z" fill="#ffb810"/><path d="m346.06033 209.90127s-77.52088 6.28548-85.90151 27.23707-12.57095 62.85476-4.19032 62.85476 18.85643 4.19032 20.95159 0 10.47579-46.09349 12.57095-46.09349 64.94992-6.28548 64.94992-6.28548 27.23704-33.52254-8.38063-37.71286z" fill="#ffb810"/><path d="m393.164 170.14572s6.67194-11.59461 15.01174-1.52364 21.90695-8.43621 19.82426-12.38525-9.4377.17756-22.04212-3.94283-36.88462-12.51447-40.951 14.86727 5.61827 24.51117 5.61827 24.51117 4.43914-24.26318 8.45125-17.29375l4.01211 6.96944 3.4802.85654z" fill="#6b6b6a"/><circle cx="630.30874" cy="75.31366" fill="#6b6b6a" r="30.67436"/><g fill="#9f616a"><path d="m620.50364 98.0181s1.58734 28.57208-1.58733 28.57208 19.84169 13.49237 19.84169 13.49237l14.286-7.93668v-9.524s-19.04806-2.381-11.11137-23.0164-21.42899-1.58737-21.42899-1.58737z"/><path d="m553.835 411.517-2.381 23.81 7.937 2.381 6.349-6.349 2.381-19.842z"/><path d="m668.124 425.01 3.968 15.079 11.111 7.143 11.906-6.349-13.493-22.223z"/><circle cx="628.0435" cy="87.30358" r="23.0164"/><path d="m614.15429 173.41665-5.55568-2.381s-9.524-5.55568-10.31769-16.667 7.93668-25.3974 7.93668-25.3974l12.69871-3.96834 14.92 12.14338.15973 19.60337z"/><path d="m608.59861 130.55853-3.17467-1.58734s-15.87338-.79367-17.46072 18.25438-7.143 50.79481-7.143 50.79481-12.6987 22.22273-11.905 46.0328l-6.34935 20.63539s-8.73036 30.15941 1.58733 30.15941 9.524-32.54042 9.524-32.54042 19.048-46.03279 20.63539-53.96948 15.07971-45.23913 11.11137-55.55682 3.17465-22.22273 3.17465-22.22273z"/><path d="m620.50364 180.55967v8.73035s5.55569 6.34936 3.17468 10.3177-4.762 11.905-4.762 11.905l11.11135 17.46074 37.30244 3.17467 7.418-49.69947z"/><path d="m655.42507 125.00285 6.34935-3.17468s13.49238-9.524 24.60374-11.11136l34.12776-23.0164 22.22273-53.17582s-.79367-28.57207 5.55568-25.3974 5.55567 27.77841 5.55567 27.77841-11.905 49.20747-22.22272 62.69984-47.62014 35.7151-47.62014 35.7151-10.31769 11.905-9.524 17.46072-19.04807-27.77841-19.04807-27.77841z"/></g><path d="m626.05933 211.51275s-8.73036-5.55568-14.286 3.96835-15.87338 11.905-22.22273 40.47711-21.4291 73.81125-25.39745 76.98588-20.63539 36.50877-11.11136 83.33523h15.87338l13.49237-67.46186s43.65179-53.96949 46.82646-76.19221l14.286 83.33521s.79367 31.74675 12.6987 46.82646l12.6987 30.15942 16.667-7.93669-19.048-76.19221s9.524-76.98588 3.17467-98.41494l-.91239-28.09391s-26.07231 1.1092-42.73935-10.79584z" fill="#6b6b6a"/><path d="m559.39114 431.35903h-9.524c-1.58733 0-14.286 10.31769-8.73035 15.87338s14.286 15.87337 14.286 15.87337 30.95308 3.93669 31.74675-1.619-13.49237-17.42906-13.49237-17.42906l-3.96834-12.6987s-7.93668-8.73035-10.31769.00001z" fill="#2f2e41"/><path d="m685.58449 439.29572s-13.49237-.79367-15.87338-1.58734-7.143 20.63539 0 22.22273 36.50877 3.96835 36.50877 3.96835 23.0164-.79367 21.42906-7.143-32.54042-19.048-32.54042-19.048-3.96835-7.93677-9.52403 1.58726z" fill="#2f2e41"/><path d="m622.88465 124.20918-3.96834-2.381-4.762 3.96834s14.286 9.524 11.11137 18.25439-16.66705 26.98474-16.66705 26.98474 11.905 13.49237 11.905 18.25438c0 0 30.95309-11.11136 53.96949 0 0 0 0-15.87337 3.17467-19.048s4.762-14.286-3.17467-23.81006c-5.591555-7.00804-10.633137-14.437739-15.07971-22.22273l-7.93669-4.762-4.0879 1.29666s8.05624 9.021.11956 9.81471-20.63538-1.58742-24.60373-6.34943z" fill="#ffb810"/><path d="m652.72756 23.0164c-2.696886 3.0098564-6.390112 4.9444036-10.4 5.44762-6.93334.99048-1.48571 11.88573-1.48571 11.88573s-1.981-3.96191 1.981-7.42858 9.90471-5.44763 9.90471-9.90477z" fill="#6b6b6a"/><circle cx="639.36019" cy="42.62787" fill="#6b6b6a" r="8.54859"/><path d="m649.34038 51.04546c-6.60419-3.44952-17.9654-6.16264-24.00173-5.9687l1.527-5.83788c5.34392 3.63063 16.6454 6.39441 24.00173 5.9687z" fill="#ffb810"/><path d="m635.69635 51.55928s-10.40688 13.38026-31.22063 16.35366-4.46009 35.68071-4.46009 35.68071-5.94678-11.89357 5.94679-22.30044 29.73393-16.35367 29.73393-29.73393z" fill="#6b6b6a"/><path d="m636.49 50.76561s5.94678 20.81375 14.867 23.78714 4.46009 34.194-10.40687 37.16741c0 0 12.63692-17.097 5.20344-30.47727s-11.89357-23.78715-9.66357-30.47728z" fill="#6b6b6a"/><path d="m721.69642 15.87338h54.76315v6.34935h-54.76315z" fill="#ffb810"/><ellipse cx="776.45958" cy="19.04805" fill="#ffb810" rx="4.76201" ry="19.04805"/><ellipse cx="721.69642" cy="19.04805" fill="#ffb810" rx="4.76201" ry="19.04805"/><path d="m749.47483 442.88249h54.76315v6.34935h-54.76315z" fill="#2f2e41"/><ellipse cx="804.23799" cy="446.05716" fill="#2f2e41" rx="4.76201" ry="19.04805"/><ellipse cx="749.47483" cy="446.05716" fill="#2f2e41" rx="4.76201" ry="19.04805"/><path d="m173 437.73683c0-23.38843-14.48063-42.34852-32.34348-42.34852-11.22724 0-21.11532 7.493-26.91464 18.865-1.991504-.67207-4.079152-1.015386-6.181-1.01647-5.435645.092015-10.625106 2.282577-14.48256 6.11334-5.22767-14.17914-16.31287-23.96187-29.14353-23.96187-11.99658 0-22.45981 8.55849-28.04345 21.26015-3.2753131-2.198453-7.1249533-3.384903-11.06959-3.41162-13.70863 0-24.82261745 14.55072-24.82261745 32.5-.03925831 6.054381 1.29800127 12.03861 3.91149745 17.5h162.56652c4.359265-7.786355 6.607848-16.576821 6.52285-25.50001z" fill="#ffb810" opacity=".3"/></g></svg>