<?xml version="1.0" encoding="UTF-8"?>
<svg width="1059px" height="590px" viewBox="0 0 1059 590" version="1.1" xmlns="http://www.w3.org/2000/svg" xmlns:xlink="http://www.w3.org/1999/xlink">
    <!-- Generator: Sketch 61 (89581) - https://sketch.com -->
    <title>Slice 1</title>
    <desc>Created with Sketch.</desc>
    <g id="Page-1" stroke="none" stroke-width="1" fill="none" fill-rule="evenodd">
        <g id="undraw_working_out_6psf" fill-rule="nonzero">
            <path d="M1059,552.47999 C1059,520.31319 1042.6779,494.23683 1022.54348,494.23683 C1009.88848,494.23683 998.74298,504.54214 992.20617,520.18241 C989.997584,519.265355 987.630573,518.79039 985.23917,518.78441 C979.1448,518.78441 973.51005,521.90719 968.9149,527.19227 C963.02244,507.69127 950.52756,494.23683 936.06526,494.23683 C922.54309,494.23683 910.74926,506.00754 904.45559,523.47651 C900.958963,520.52563 896.552902,518.868725 891.9783,518.78441 C876.52634,518.78446 864,538.79646 864,563.48262 C863.935909,571.711777 865.431597,579.878564 868.40793,587.55089 L1051.64765,587.55089 C1056.261,577.79465 1059,565.64971 1059,552.47999 Z" id="Path" fill="#FFB810"></path>
            <path d="M928.299,216.15119 C899.58867,154.04371 843.40313,101.06098 775.52782,92.42561 C757.58147,90.1424 738.84404,91.05811 722.19304,98.13117 C700.33604,107.41572 684.22796,126.15626 667.94689,143.44392 C633.475904,180.036828 594.901297,212.533842 552.987,240.29139 C532.3,253.98739 510.111,266.76594 485.54974,270.27021 C436.30444,277.29627 387.59418,243.71388 365.13556,199.32832 C351.1062,171.60182 344.62311,139.04871 333.28198,110.20932 C320.22058,110.18432 304.65912,110.18912 287.91711,110.26626 C241.64038,110.47958 203.97296,111.16326 203.97296,111.16326 C203.97296,111.16326 248.74658,51.85601 287.74921,73.82891 C300.21332,80.85082 313.26807,87.11699 325.26556,92.39556 C318.44977,79.28478 309.85248,67.48827 298.02521,58.00365 C274.70392,39.30175 243.1178,34.0559 213.25641,35.44865 C181.89966,36.91117 150.2547,45.30625 124.77484,63.64097 C79.38422,96.30297 60.63984,153.7938 44.59711,207.36381 L83.37463,226.80363 C100.00775,212.42363 124.33044,198.19883 146.74921,210.8289 C185.75177,232.8019 230.55579,247.3909 230.55579,247.3909 C230.55579,247.3909 193.19385,247.05301 146.91711,247.26626 C139.14484,247.30209 131.62469,247.35141 124.47577,247.40826 L555,463.23683 C697,465.23683 804.06818,457.55769 939,463.23683 C946.03717,463.53297 961.86554,426.64483 961.91827,416.93696 C962.29016,348.51557 957.00934,278.25868 928.299,216.15119 Z M790.41716,234.76619 C744.14043,234.97951 706.47301,235.66319 706.47301,235.66319 C706.47301,235.66319 751.24663,176.35594 790.24926,198.32884 C829.25189,220.30174 874.05584,234.89084 874.05584,234.89084 C874.05584,234.89084 836.69385,234.55299 790.41711,234.76624 L790.41716,234.76619 Z" id="Shape" fill="#F2F2F2"></path>
            <path d="M911,437.73683 C911,414.3484 896.51937,395.38831 878.65652,395.38831 C867.42928,395.38831 857.5412,402.88131 851.74188,414.25331 C849.750376,413.58124 847.662728,413.237924 845.56088,413.23684 C840.125235,413.328855 834.935774,415.519417 831.07832,419.35018 C825.85065,405.17104 814.76545,395.38831 801.93479,395.38831 C789.93821,395.38831 779.47498,403.9468 773.89134,416.64846 C770.616027,414.450007 766.766387,413.263557 762.82175,413.23684 C749.11312,413.23684 737.999133,427.78756 737.999133,445.73684 C737.959874,451.791221 739.297134,457.77545 741.91063,463.23684 L904.47715,463.23684 C908.836415,455.450485 911.084998,446.660019 911,437.73683 L911,437.73683 Z" id="Path" fill="#FFB810" opacity="0.3"></path>
            <polygon id="Path" fill="#2F2E41" points="1059 589.237 61 589.237 61 587.237 1058 587.237"></polygon>
            <path d="M402.62962,281.13667 C402.62962,281.13667 408.91509,235.04318 419.39089,247.61413 C429.86669,260.18508 419.39089,279.04151 419.39089,279.04151 L411.01025,289.51731 L402.62962,283.23183 L402.62962,281.13667 Z" id="Path" fill="#FFB8B8"></path>
            <path d="M377.48771,295.80278 C377.48771,295.80278 398.4393,272.75604 402.62962,276.94635 C406.81994,281.13666 419.39089,283.23183 417.29573,291.61246 C415.20057,299.99309 371.20223,327.23016 371.20223,327.23016 L377.48771,295.80278 Z" id="Path" fill="#FFB810"></path>
            <path d="M377.48771,295.80278 C377.48771,295.80278 398.4393,272.75604 402.62962,276.94635 C406.81994,281.13666 419.39089,283.23183 417.29573,291.61246 C415.20057,299.99309 371.20223,327.23016 371.20223,327.23016 L377.48771,295.80278 Z" id="Path" fill="#000000" opacity="0.1"></path>
            <path d="M258.06366,293.70762 L258.06366,310.46889 C258.06366,310.46889 255.9685,348.18175 268.53945,346.08659 C281.1104,343.99143 274.82493,312.56405 274.82493,312.56405 L272.72977,293.70762 L258.06366,293.70762 Z" id="Path" fill="#FFB8B8"></path>
            <path d="M264.34914,415.22683 C264.34914,415.22683 245.49271,444.55906 239.20723,446.65422 C232.92175,448.74938 199.39923,467.6058 195.2089,486.46222 L165.87667,524.17508 L180.54278,543.03151 C180.54278,543.03151 247.58787,471.79611 266.44429,465.51063 C285.30071,459.22515 304.15715,427.79778 304.15715,427.79778 L264.34914,415.22683 Z" id="Path" fill="#FFB8B8"></path>
            <path d="M413.10541,367.03818 C413.10541,367.03818 452.91341,373.32366 446.62795,398.46556 C440.34249,423.60746 379.58287,475.98646 379.58287,475.98646 L377.48771,488.55746 L354.441,492.74771 L343.96521,482.27192 L346.06037,475.98644 C346.06037,475.98644 371.20227,452.93969 373.29743,444.55906 C375.39259,436.17843 398.43934,402.65588 408.91513,400.56072 L394.249,392.18009 L413.10541,367.03818 Z" id="Path" fill="#FFB8B8"></path>
            <path d="M172.16215,524.17509 C172.16215,524.17509 180.54278,511.60409 167.97183,513.6993 C155.40088,515.79451 147.02024,517.88961 147.02024,526.27025 C147.02024,534.65089 157.49604,593.31533 170.06699,589.12501 C182.63794,584.93469 172.16215,566.07827 172.16215,566.07827 C172.16215,566.07827 178.44762,549.317 182.63794,547.22184 C186.82826,545.12668 186.82826,534.65089 182.63794,534.65089 C178.44762,534.65089 170.067,528.36546 172.16215,524.17509 Z" id="Path" fill="#2F2E41"></path>
            <path d="M350.25065,478.0816 C350.25065,478.0816 350.25065,467.6058 341.87001,478.0816 C333.48937,488.5574 329.29906,496.93803 337.67969,503.2235 C346.06032,509.50897 375.39255,524.17509 375.39255,524.17509 C375.39255,524.17509 406.81993,530.46057 402.62962,515.79446 C402.62962,515.79446 381.67803,505.31866 381.67803,496.93803 C381.67803,488.5574 381.67803,473.89128 375.39255,478.0816 C369.10707,482.27192 350.25065,484.36707 350.25065,478.0816 Z" id="Path" fill="#2F2E41"></path>
            <path d="M310.44263,320.94469 C310.44263,320.94469 281.11041,325.13501 283.20556,367.03818 C283.20556,367.03818 245.49271,404.75104 255.9685,417.32199 C266.44429,429.89294 289.49104,452.93969 297.87168,446.65422 C306.25232,440.36875 331.39422,392.18009 331.39422,392.18009 C331.39422,392.18009 390.05866,413.13167 400.53446,402.65588 C411.01026,392.18009 421.48605,367.03818 421.48605,367.03818 L369.10705,339.80112 L310.44263,320.94469 Z" id="Path" fill="#6B6B6A"></path>
            <circle id="Oval" fill="#FFB8B8" cx="392.15382" cy="176.37873" r="25.14191"></circle>
            <path d="M373.29739,178.47389 C373.29739,178.47389 358.63128,201.52064 354.44096,203.6158 C350.25064,205.71096 383.77319,226.66254 383.77319,226.66254 C383.77319,226.66254 383.77319,199.42548 394.24898,193.14 L373.29739,178.47389 Z" id="Path" fill="#FFB8B8"></path>
            <path d="M371.20223,201.52064 C371.20223,201.52064 337.67969,191.04484 331.39423,207.80611 C325.10877,224.56738 310.44264,255.99477 312.5378,276.94635 C314.63296,297.89793 318.82327,293.70762 312.5378,299.9931 C306.25233,306.27858 302.062,302.08826 304.15716,310.46889 C306.25232,318.84952 308.34748,318.84953 306.25232,323.03989 C304.15716,327.23025 331.39422,341.89628 354.441,343.99146 L377.48775,346.08662 C377.48775,346.08662 377.48775,308.37377 381.67807,299.99313 C385.86839,291.61249 394.24907,274.85122 394.24907,268.56575 L394.24907,251.93487 C394.24907,240.86558 391.360348,229.987914 385.86844,220.37708 L385.86844,220.37708 C385.86844,220.37708 373.29739,201.52064 371.20223,201.52064 Z" id="Path" fill="#FFB810"></path>
            <path d="M346.06033,209.90127 C346.06033,209.90127 268.53945,216.18675 260.15882,237.13834 C251.77819,258.08993 247.58787,299.9931 255.9685,299.9931 C264.34913,299.9931 274.82493,304.18342 276.92009,299.9931 C279.01525,295.80278 287.39588,253.89961 289.49104,253.89961 C291.5862,253.89961 354.44096,247.61413 354.44096,247.61413 C354.44096,247.61413 381.678,214.09159 346.06033,209.90127 Z" id="Path" fill="#FFB810"></path>
            <path d="M393.164,170.14572 C393.164,170.14572 399.83594,158.55111 408.17574,168.62208 C416.51554,178.69305 430.08269,160.18587 428,156.23683 C425.91731,152.28779 418.5623,156.41439 405.95788,152.294 C393.35346,148.17361 369.07326,139.77953 365.00688,167.16127 C360.9405,194.54301 370.62515,191.67244 370.62515,191.67244 C370.62515,191.67244 375.06429,167.40926 379.0764,174.37869 L383.08851,181.34813 L386.56871,182.20467 L393.164,170.14572 Z" id="Path" fill="#6B6B6A"></path>
            <circle id="Oval" fill="#6B6B6A" cx="630.30874" cy="75.31366" r="30.67436"></circle>
            <path d="M620.50364,98.0181 C620.50364,98.0181 622.09098,126.59018 618.91631,126.59018 C615.74164,126.59018 638.758,140.08255 638.758,140.08255 L653.044,132.14587 L653.044,122.62187 C653.044,122.62187 633.99594,120.24087 641.93263,99.60547 C649.86932,78.97007 620.50364,98.0181 620.50364,98.0181 Z" id="Path" fill="#9F616A"></path>
            <polygon id="Path" fill="#9F616A" points="553.835 411.517 551.454 435.327 559.391 437.708 565.74 431.359 568.121 411.517"></polygon>
            <polygon id="Path" fill="#9F616A" points="668.124 425.01 672.092 440.089 683.203 447.232 695.109 440.883 681.616 418.66"></polygon>
            <circle id="Oval" fill="#9F616A" cx="628.0435" cy="87.30358" r="23.0164"></circle>
            <path d="M614.15429,173.41665 L608.59861,171.03565 C608.59861,171.03565 599.07461,165.47997 598.28092,154.36865 C597.48723,143.25733 606.2176,128.97125 606.2176,128.97125 L618.91631,125.00291 L633.83631,137.14629 L633.99604,156.74966 L614.15429,173.41665 Z" id="Path" fill="#9F616A"></path>
            <path d="M608.59861,130.55853 L605.42394,128.97119 C605.42394,128.97119 589.55056,128.17752 587.96322,147.22557 C586.37588,166.27362 580.82022,198.02038 580.82022,198.02038 C580.82022,198.02038 568.12152,220.24311 568.91522,244.05318 L562.56587,264.68857 C562.56587,264.68857 553.83551,294.84798 564.1532,294.84798 C574.47089,294.84798 573.6772,262.30756 573.6772,262.30756 C573.6772,262.30756 592.7252,216.27477 594.31259,208.33808 C595.89998,200.40139 609.3923,163.09895 605.42396,152.78126 C601.45562,142.46357 608.59861,130.55853 608.59861,130.55853 Z" id="Path" fill="#9F616A"></path>
            <path d="M620.50364,180.55967 L620.50364,189.29002 C620.50364,189.29002 626.05933,195.63938 623.67832,199.60772 C621.29731,203.57606 618.91632,211.51272 618.91632,211.51272 L630.02767,228.97346 L667.33011,232.14813 L674.74811,182.44866 L620.50364,180.55967 Z" id="Path" fill="#9F616A"></path>
            <path d="M655.42507,125.00285 L661.77442,121.82817 C661.77442,121.82817 675.2668,112.30417 686.37816,110.71681 L720.50592,87.70041 L742.72865,34.52459 C742.72865,34.52459 741.93498,5.95252 748.28433,9.12719 C754.63368,12.30186 753.84,36.9056 753.84,36.9056 C753.84,36.9056 741.935,86.11307 731.61728,99.60544 C721.29956,113.09781 683.99714,135.32054 683.99714,135.32054 C683.99714,135.32054 673.67945,147.22554 674.47314,152.78126 C675.26683,158.33698 655.42507,125.00285 655.42507,125.00285 Z" id="Path" fill="#9F616A"></path>
            <path d="M626.05933,211.51275 C626.05933,211.51275 617.32897,205.95707 611.77333,215.4811 C606.21769,225.00513 595.89995,227.3861 589.5506,255.95821 C583.20125,284.53032 568.1215,329.76946 564.15315,332.94409 C560.1848,336.11872 543.51776,369.45286 553.04179,416.27932 L568.91517,416.27932 L582.40754,348.81746 C582.40754,348.81746 626.05933,294.84797 629.234,272.62525 L643.52,355.96046 C643.52,355.96046 644.31367,387.70721 656.2187,402.78692 L668.9174,432.94634 L685.5844,425.00965 L666.5364,348.81744 C666.5364,348.81744 676.0604,271.83156 669.71107,250.4025 L668.79868,222.30859 C668.79868,222.30859 642.72637,223.41779 626.05933,211.51275 Z" id="Path" fill="#6B6B6A"></path>
            <path d="M559.39114,431.35903 L549.86714,431.35903 C548.27981,431.35903 535.58114,441.67672 541.13679,447.23241 C546.69244,452.7881 555.42279,463.10578 555.42279,463.10578 C555.42279,463.10578 586.37587,467.04247 587.16954,461.48678 C587.96321,455.93109 573.67717,444.05772 573.67717,444.05772 L569.70883,431.35902 C569.70883,431.35902 561.77215,422.62867 559.39114,431.35903 Z" id="Path" fill="#2F2E41"></path>
            <path d="M685.58449,439.29572 C685.58449,439.29572 672.09212,438.50205 669.71111,437.70838 C667.3301,436.91471 662.56811,458.34377 669.71111,459.93111 C676.85411,461.51845 706.21988,463.89946 706.21988,463.89946 C706.21988,463.89946 729.23628,463.10579 727.64894,456.75646 C726.0616,450.40713 695.10852,437.70846 695.10852,437.70846 C695.10852,437.70846 691.14017,429.77169 685.58449,439.29572 Z" id="Path" fill="#2F2E41"></path>
            <path d="M622.88465,124.20918 L618.91631,121.82818 L614.15431,125.79652 C614.15431,125.79652 628.44031,135.32052 625.26568,144.05091 C622.09105,152.7813 608.59863,171.03565 608.59863,171.03565 C608.59863,171.03565 620.50363,184.52802 620.50363,189.29003 C620.50363,189.29003 651.45672,178.17867 674.47312,189.29003 C674.47312,189.29003 674.47312,173.41666 677.64779,170.24203 C680.82246,167.0674 682.40979,155.95603 674.47312,146.43197 C668.881565,139.42393 663.839983,131.994231 659.39341,124.20924 L651.45672,119.44724 L647.36882,120.7439 C647.36882,120.7439 655.42506,129.7649 647.48838,130.55861 C639.5517,131.35232 626.853,128.97119 622.88465,124.20918 Z" id="Path" fill="#FFB810"></path>
            <path d="M652.72756,23.0164 C650.030674,26.0262564 646.337448,27.9608036 642.32756,28.46402 C635.39422,29.4545 640.84185,40.34975 640.84185,40.34975 C640.84185,40.34975 638.86085,36.38784 642.82285,32.92117 C646.78485,29.4545 652.72756,27.47354 652.72756,23.0164 Z" id="Path" fill="#6B6B6A"></path>
            <circle id="Oval" fill="#6B6B6A" cx="639.36019" cy="42.62787" r="8.54859"></circle>
            <path d="M649.34038,51.04546 C642.73619,47.59594 631.37498,44.88282 625.33865,45.07676 L626.86565,39.23888 C632.20957,42.86951 643.51105,45.63329 650.86738,45.20758 L649.34038,51.04546 Z" id="Path" fill="#FFB810"></path>
            <path d="M635.69635,51.55928 C635.69635,51.55928 625.28947,64.93954 604.47572,67.91294 C583.66197,70.88634 600.01563,103.59365 600.01563,103.59365 C600.01563,103.59365 594.06885,91.70008 605.96242,81.29321 C617.85599,70.88634 635.69635,64.93954 635.69635,51.55928 Z" id="Path" fill="#6B6B6A"></path>
            <path d="M636.49,50.76561 C636.49,50.76561 642.43678,71.57936 651.357,74.55275 C660.27722,77.52614 655.81709,108.74675 640.95013,111.72016 C640.95013,111.72016 653.58705,94.62316 646.15357,81.24289 C638.72009,67.86262 634.26,57.45574 636.49,50.76561 Z" id="Path" fill="#6B6B6A"></path>
            <rect id="Rectangle" fill="#FFB810" x="721.69642" y="15.87338" width="54.76315" height="6.34935"></rect>
            <ellipse id="Oval" fill="#FFB810" cx="776.45958" cy="19.04805" rx="4.76201" ry="19.04805"></ellipse>
            <ellipse id="Oval" fill="#FFB810" cx="721.69642" cy="19.04805" rx="4.76201" ry="19.04805"></ellipse>
            <rect id="Rectangle" fill="#2F2E41" x="749.47483" y="442.88249" width="54.76315" height="6.34935"></rect>
            <ellipse id="Oval" fill="#2F2E41" cx="804.23799" cy="446.05716" rx="4.76201" ry="19.04805"></ellipse>
            <ellipse id="Oval" fill="#2F2E41" cx="749.47483" cy="446.05716" rx="4.76201" ry="19.04805"></ellipse>
            <path d="M173,437.73683 C173,414.3484 158.51937,395.38831 140.65652,395.38831 C129.42928,395.38831 119.5412,402.88131 113.74188,414.25331 C111.750376,413.58124 109.662728,413.237924 107.56088,413.23684 C102.125235,413.328855 96.935774,415.519417 93.07832,419.35018 C87.85065,405.17104 76.76545,395.38831 63.93479,395.38831 C51.93821,395.38831 41.47498,403.9468 35.89134,416.64846 C32.6160269,414.450007 28.7663867,413.263557 24.82175,413.23684 C11.11312,413.23684 -0.000867446591,427.78756 -0.000867446591,445.73684 C-0.0401257627,451.791221 1.29713382,457.77545 3.91063,463.23684 L166.47715,463.23684 C170.836415,455.450485 173.084998,446.660019 173,437.73683 L173,437.73683 Z" id="Path" fill="#FFB810" opacity="0.3"></path>
        </g>
    </g>
</svg>